<?xml version="1.0" encoding="utf-8"?>
<!-- Generator: Adobe Illustrator 17.1.0, SVG Export Plug-In . SVG Version: 6.00 Build 0)  -->
<!DOCTYPE svg PUBLIC "-//W3C//DTD SVG 1.1//EN" "http://www.w3.org/Graphics/SVG/1.1/DTD/svg11.dtd">
<svg version="1.1" id="Arrow_1_" xmlns="http://www.w3.org/2000/svg" xmlns:xlink="http://www.w3.org/1999/xlink" x="0px" y="0px"
	 width="500px" height="500px" viewBox="0 0 500 500" enable-background="new 0 0 500 500" xml:space="preserve">
  <metadata>
    <?xpacket begin="﻿" id="W5M0MpCehiHzreSzNTczkc9d"?>
    <x:xmpmeta xmlns:x="adobe:ns:meta/" x:xmptk="Adobe XMP Core 5.6-c011 79.156380, 2014/06/19-23:40:37        ">
     <rdf:RDF xmlns:rdf="http://www.w3.org/1999/02/22-rdf-syntax-ns#">
      <rdf:Description rdf:about=""
        xmlns:xmpMM="http://ns.adobe.com/xap/1.0/mm/"
        xmlns:stEvt="http://ns.adobe.com/xap/1.0/sType/ResourceEvent#"
        xmlns:xmp="http://ns.adobe.com/xap/1.0/"
        xmlns:xmpRights="http://ns.adobe.com/xap/1.0/rights/"
        xmlns:dc="http://purl.org/dc/elements/1.1/"
       xmpMM:DocumentID="xmp.did:b3ea226609c94fbed49734618eba47dc"
       xmpMM:OriginalDocumentID="xmp.did:b3ea226609c94fbed49734618eba47dc"
       xmpMM:InstanceID="xmp.iid:b3ea226609c94fbed49734618eba47dc"
       xmp:ModifyDate="2015-04-09T16:45:54+02:00"
       xmp:MetadataDate="2015-04-09T16:45:54+02:00"
       xmpRights:Marked="True"
       xmpRights:WebStatement="http://www.adobe.com/legal/general-terms.html">
       <xmpMM:History>
        <rdf:Seq>
         <rdf:li
          stEvt:action="saved"
          stEvt:instanceID="xmp.iid:b3ea226609c94fbed49734618eba47dc"
          stEvt:when="2015-04-09T16:45:54+02:00"/>
        </rdf:Seq>
       </xmpMM:History>
       <xmpRights:UsageTerms>
        <rdf:Alt>
         <rdf:li xml:lang="x-default">This work is licensed under the Adobe General Terms of Use http://www.adobe.com/legal/general-terms.html.</rdf:li>
        </rdf:Alt>
       </xmpRights:UsageTerms>
       <dc:publisher>
        <rdf:Bag>
         <rdf:li>Adobe Systems Incorporated</rdf:li>
        </rdf:Bag>
       </dc:publisher>
      </rdf:Description>
     </rdf:RDF>
    </x:xmpmeta>
    <?xpacket end="r"?>
  </metadata>
<g>
	<path fill="none" d="M176.6,249c0-6.9,1-13.6,2.8-20l-80.1-46.2c-9,20.3-14,42.6-14,66.2c0,23.4,5,45.7,13.9,65.9l80.1-46.3
		C177.7,262.4,176.6,255.8,176.6,249z"/>
	<path fill="none" d="M230,178.4V85.7c-44.6,5.5-83.6,28.8-109.9,62.6l80.6,46.5C209,187.2,218.9,181.5,230,178.4z"/>
	<path fill="none" d="M380.1,148.2c-26.3-33.7-65.3-57-109.8-62.5v92.7c11,3.1,21,8.8,29.2,16.3L380.1,148.2z"/>
	<path fill="none" d="M119.9,349.5c26.3,33.9,65.4,57.4,110.1,62.9v-92.7c-11.1-3.2-21.2-9-29.5-16.6L119.9,349.5z"/>
	<path fill="none" d="M320.7,228.9c1.8,6.4,2.9,13.1,2.9,20.1c0,6.8-1,13.4-2.8,19.7l80.1,46.3c8.9-20.2,13.9-42.5,13.9-66
		c0-23.6-5.1-46-14-66.3L320.7,228.9z"/>
	<path fill="none" d="M283.3,249c0-18.3-14.9-33.2-33.2-33.2c-18.3,0-33.2,14.9-33.2,33.2c0,18.3,14.9,33.2,33.2,33.2
		C268.4,282.2,283.3,267.3,283.3,249z"/>
	<path fill="none" d="M270.2,319.6v92.7c44.7-5.5,83.8-28.9,110-62.8l-80.5-46.5C291.4,310.7,281.4,316.4,270.2,319.6z"/>
	<path fill="#231F20" d="M457.3,347.5l-21.4-12.4c12.2-26.2,19.2-55.3,19.2-86.1c0-30.9-7.1-60.1-19.4-86.5l21.6-12.5
		c9.6-5.6,12.9-17.9,7.4-27.5c-5.6-9.6-17.9-12.9-27.5-7.4l-22,12.7C381.5,82.2,329.6,50.9,270.2,45V20.1c0-11.1-9-20.1-20.1-20.1
		c-11.1,0-20.1,9-20.1,20.1V45C170.5,50.9,118.6,82.3,85,128l-22.1-12.8c-9.7-5.6-22-2.2-27.5,7.4c-5.6,9.6-2.3,22,7.4,27.5
		l21.7,12.5c-12.3,26.3-19.3,55.5-19.3,86.4c0,30.8,7,59.9,19.2,86.1l-21.6,12.4c-9.6,5.6-12.9,17.9-7.4,27.5
		c3.7,6.5,10.5,10.1,17.5,10.1c3.4,0,6.9-0.9,10-2.7l21.9-12.7c33.6,45.9,85.6,77.4,145.1,83.2v24.9c0,11.1,9,20.2,20.2,20.2
		c11.1,0,20.1-9,20.1-20.2V453c59.5-5.8,111.5-37.3,145.1-83.1l21.8,12.6c3.2,1.8,6.6,2.7,10,2.7c6.9,0,13.7-3.6,17.5-10.1
		C470.2,365.4,466.9,353.1,457.3,347.5z M270.3,85.7c44.5,5.5,83.5,28.8,109.8,62.5l-80.6,46.6c-8.3-7.5-18.2-13.2-29.2-16.3V85.7z
		 M230,85.7v92.7c-11.1,3.2-21,8.9-29.3,16.4l-80.6-46.5C146.4,114.4,185.4,91.1,230,85.7z M99.3,314.9
		c-8.9-20.2-13.9-42.5-13.9-65.9c0-23.5,5.1-45.9,14-66.2l80.1,46.2c-1.8,6.4-2.8,13.1-2.8,20c0,6.8,1,13.4,2.7,19.6L99.3,314.9z
		 M230,412.4c-44.7-5.5-83.8-28.9-110.1-62.9l80.5-46.5c8.3,7.6,18.4,13.4,29.5,16.6V412.4z M250.1,282.2
		c-18.3,0-33.2-14.9-33.2-33.2c0-18.3,14.9-33.2,33.2-33.2c18.3,0,33.2,14.9,33.2,33.2C283.3,267.3,268.4,282.2,250.1,282.2z
		 M270.2,412.4v-92.7c11.1-3.2,21.2-8.9,29.5-16.6l80.5,46.5C354,383.5,314.9,406.9,270.2,412.4z M400.9,315l-80.1-46.3
		c1.8-6.3,2.8-12.9,2.8-19.7c0-7-1-13.7-2.9-20.1l80-46.2c9,20.3,14,42.7,14,66.3C414.8,272.5,409.8,294.8,400.9,315z"/>
</g>
</svg>
